<mxfile host="65bd71144e" scale="3" border="0">
    <diagram id="aw2tME8MYQPTS3ObVP5B" name="Page-1">
        <mxGraphModel dx="1109" dy="769" grid="0" gridSize="10" guides="1" tooltips="1" connect="1" arrows="1" fold="1" page="1" pageScale="1" pageWidth="1169" pageHeight="827" background="#FFFFFF" math="1" shadow="0">
            <root>
                <mxCell id="0"/>
                <mxCell id="1" parent="0"/>
                <mxCell id="263" value="" style="verticalLabelPosition=bottom;verticalAlign=top;html=1;shape=mxgraph.basic.arc;startAngle=0.31319715650774343;endAngle=0.2752507692245065;fillStyle=hatch;strokeColor=#000000;strokeWidth=2;fontFamily=Comic Sans MS;fontSize=60;fontColor=#000000;fillColor=#FFFFFF;rotation=-360;" vertex="1" parent="1">
                    <mxGeometry x="320.65000000000003" y="358.79" width="81.02" height="41.58" as="geometry"/>
                </mxCell>
                <mxCell id="284" value="" style="endArrow=none;html=1;strokeWidth=8;fontSize=16;" edge="1" parent="1">
                    <mxGeometry width="50" height="50" relative="1" as="geometry">
                        <mxPoint x="315" y="441" as="sourcePoint"/>
                        <mxPoint x="365" y="391" as="targetPoint"/>
                    </mxGeometry>
                </mxCell>
                <mxCell id="232" value="" style="shape=cube;whiteSpace=wrap;html=1;boundedLbl=1;backgroundOutline=1;darkOpacity=0.05;darkOpacity2=0.1;rotation=90;strokeWidth=3;fontSize=16;" vertex="1" parent="1">
                    <mxGeometry x="271" y="414.74" width="60" height="60" as="geometry"/>
                </mxCell>
                <mxCell id="283" value="" style="endArrow=none;html=1;strokeWidth=8;fontSize=16;" edge="1" parent="1">
                    <mxGeometry width="50" height="50" relative="1" as="geometry">
                        <mxPoint x="243" y="507" as="sourcePoint"/>
                        <mxPoint x="293" y="457" as="targetPoint"/>
                    </mxGeometry>
                </mxCell>
                <mxCell id="230" value="" style="shape=cylinder3;whiteSpace=wrap;html=1;boundedLbl=1;backgroundOutline=1;size=10;fontColor=#66FF66;strokeWidth=3;fontSize=16;rotation=0;" vertex="1" parent="1">
                    <mxGeometry x="220" y="479.03" width="45" height="60" as="geometry"/>
                </mxCell>
                <mxCell id="233" value="" style="shape=cylinder3;whiteSpace=wrap;html=1;boundedLbl=1;backgroundOutline=1;size=4;fontColor=#66FF66;rotation=100;strokeWidth=3;fontSize=16;" vertex="1" parent="1">
                    <mxGeometry x="486.16" y="221" width="30" height="60" as="geometry"/>
                </mxCell>
                <mxCell id="234" value="" style="endArrow=none;html=1;fontColor=#66FF66;strokeColor=#000000;strokeWidth=8;fontSize=16;" edge="1" parent="1">
                    <mxGeometry width="50" height="50" relative="1" as="geometry">
                        <mxPoint x="361.16" y="361" as="sourcePoint"/>
                        <mxPoint x="361.16" y="230.99999999999997" as="targetPoint"/>
                    </mxGeometry>
                </mxCell>
                <mxCell id="235" value="" style="endArrow=none;html=1;fontColor=#66FF66;strokeColor=#000000;strokeWidth=8;fontSize=16;entryX=0.5;entryY=1;entryDx=0;entryDy=0;entryPerimeter=0;" edge="1" parent="1" target="233">
                    <mxGeometry width="50" height="50" relative="1" as="geometry">
                        <mxPoint x="366.16" y="230.99999999999997" as="sourcePoint"/>
                        <mxPoint x="469.16" y="231" as="targetPoint"/>
                    </mxGeometry>
                </mxCell>
                <mxCell id="236" value="" style="shape=cylinder3;whiteSpace=wrap;html=1;boundedLbl=1;backgroundOutline=1;size=8.07968978321702;fontColor=#66FF66;rotation=-135;strokeWidth=3;fontSize=16;" vertex="1" parent="1">
                    <mxGeometry x="433.15000000000003" y="117" width="20" height="50" as="geometry"/>
                </mxCell>
                <mxCell id="237" value="" style="endArrow=classic;html=1;strokeColor=#0000FF;strokeWidth=3;fontSize=16;" edge="1" parent="1">
                    <mxGeometry width="50" height="50" relative="1" as="geometry">
                        <mxPoint x="361.16" y="230.99999999999997" as="sourcePoint"/>
                        <mxPoint x="426.16" y="241" as="targetPoint"/>
                    </mxGeometry>
                </mxCell>
                <mxCell id="238" value="" style="endArrow=classic;html=1;strokeColor=#FF0000;strokeWidth=3;fontSize=16;" edge="1" parent="1">
                    <mxGeometry width="50" height="50" relative="1" as="geometry">
                        <mxPoint x="361.16" y="230.99999999999997" as="sourcePoint"/>
                        <mxPoint x="360.16" y="188.99999999999997" as="targetPoint"/>
                    </mxGeometry>
                </mxCell>
                <mxCell id="240" value="" style="shape=cylinder3;whiteSpace=wrap;html=1;boundedLbl=1;backgroundOutline=1;size=7;fontColor=#66FF66;strokeWidth=3;fontSize=16;" vertex="1" parent="1">
                    <mxGeometry x="346.16" y="350" width="30" height="60" as="geometry"/>
                </mxCell>
                <mxCell id="241" value="" style="endArrow=classic;html=1;strokeColor=#0000FF;strokeWidth=3;fontSize=16;" edge="1" parent="1">
                    <mxGeometry width="50" height="50" relative="1" as="geometry">
                        <mxPoint x="360.91" y="232.75999999999996" as="sourcePoint"/>
                        <mxPoint x="361.25000000000017" y="172.75999999999996" as="targetPoint"/>
                    </mxGeometry>
                </mxCell>
                <mxCell id="242" value="" style="endArrow=classic;html=1;strokeColor=#FF0000;strokeWidth=3;fontSize=16;" edge="1" parent="1">
                    <mxGeometry width="50" height="50" relative="1" as="geometry">
                        <mxPoint x="358.16" y="232.75999999999996" as="sourcePoint"/>
                        <mxPoint x="399" y="187" as="targetPoint"/>
                    </mxGeometry>
                </mxCell>
                <mxCell id="247" value="&lt;font color=&quot;#ff6666&quot; style=&quot;font-size: 24px;&quot;&gt;$$ \hat X _{4}^m $$&lt;/font&gt;" style="text;html=1;strokeColor=none;fillColor=none;align=center;verticalAlign=middle;whiteSpace=wrap;rounded=0;strokeWidth=3;fontSize=60;fontFamily=Times New Roman;fontColor=#6666FF;rotation=0;connectable=0;" vertex="1" parent="1">
                    <mxGeometry x="269.16" y="153.18000000000004" width="41" height="41.76" as="geometry"/>
                </mxCell>
                <mxCell id="248" value="&lt;font color=&quot;#ff6666&quot; style=&quot;font-size: 24px;&quot;&gt;$$ \hat X _{5}^m $$&lt;/font&gt;" style="text;html=1;strokeColor=none;fillColor=none;align=center;verticalAlign=middle;whiteSpace=wrap;rounded=0;strokeWidth=3;fontSize=60;fontFamily=Times New Roman;fontColor=#6666FF;rotation=0;connectable=0;" vertex="1" parent="1">
                    <mxGeometry x="488.28" y="117" width="35.19" height="33.76" as="geometry"/>
                </mxCell>
                <mxCell id="249" value="&lt;font style=&quot;font-size: 24px;&quot;&gt;$$ \hat Z _{5}^m $$&lt;/font&gt;" style="text;html=1;strokeColor=none;fillColor=none;align=center;verticalAlign=middle;whiteSpace=wrap;rounded=0;strokeWidth=3;fontSize=60;fontFamily=Times New Roman;fontColor=#6666FF;rotation=0;" vertex="1" parent="1">
                    <mxGeometry x="418.47" y="74.53999999999999" width="49.37" height="30.61" as="geometry"/>
                </mxCell>
                <mxCell id="250" value="" style="endArrow=classic;html=1;strokeColor=#0000FF;strokeWidth=3;fontSize=16;" edge="1" parent="1">
                    <mxGeometry width="50" height="50" relative="1" as="geometry">
                        <mxPoint x="435.41" y="146.99999999999974" as="sourcePoint"/>
                        <mxPoint x="477.91" y="105.99999999999997" as="targetPoint"/>
                    </mxGeometry>
                </mxCell>
                <mxCell id="251" value="" style="endArrow=classic;html=1;strokeColor=#FF0000;strokeWidth=3;fontSize=16;" edge="1" parent="1">
                    <mxGeometry width="50" height="50" relative="1" as="geometry">
                        <mxPoint x="433.15000000000026" y="146.99999999999974" as="sourcePoint"/>
                        <mxPoint x="484.6499999999998" y="152.99999999999997" as="targetPoint"/>
                    </mxGeometry>
                </mxCell>
                <mxCell id="254" value="" style="endArrow=classic;html=1;strokeColor=#00CC00;strokeWidth=3;fontSize=16;" edge="1" parent="1">
                    <mxGeometry width="50" height="50" relative="1" as="geometry">
                        <mxPoint x="435.1499999999998" y="146.99999999999974" as="sourcePoint"/>
                        <mxPoint x="435.1499999999998" y="191.99999999999997" as="targetPoint"/>
                    </mxGeometry>
                </mxCell>
                <mxCell id="255" value="&lt;font color=&quot;#00cc00&quot; style=&quot;font-size: 24px;&quot;&gt;$$ \hat Y _{5}^m $$&lt;/font&gt;" style="text;html=1;strokeColor=none;fillColor=none;align=center;verticalAlign=middle;whiteSpace=wrap;rounded=0;strokeWidth=3;fontSize=60;fontFamily=Times New Roman;fontColor=#6666FF;rotation=0;connectable=0;" vertex="1" parent="1">
                    <mxGeometry x="455.03000000000003" y="161" width="18.5" height="30" as="geometry"/>
                </mxCell>
                <mxCell id="257" value="&lt;font style=&quot;font-size: 24px;&quot;&gt;$$\theta_3$$&lt;/font&gt;" style="text;html=1;strokeColor=none;fillColor=none;align=center;verticalAlign=middle;whiteSpace=wrap;rounded=0;fillStyle=hatch;strokeWidth=4;fontFamily=Comic Sans MS;fontSize=60;fontColor=#000000;" vertex="1" parent="1">
                    <mxGeometry x="287.15522996818055" y="350.24460511069105" width="50.330178933013755" height="19.754223333536622" as="geometry"/>
                </mxCell>
                <mxCell id="258" value="" style="endArrow=classic;html=1;strokeColor=#FF3333;strokeWidth=3;fontSize=16;" edge="1" parent="1">
                    <mxGeometry width="50" height="50" relative="1" as="geometry">
                        <mxPoint x="358.95" y="378" as="sourcePoint"/>
                        <mxPoint x="432.29000000000013" y="378" as="targetPoint"/>
                    </mxGeometry>
                </mxCell>
                <mxCell id="259" value="" style="endArrow=classic;html=1;strokeColor=#0000FF;strokeWidth=3;fontSize=16;" edge="1" parent="1">
                    <mxGeometry width="50" height="50" relative="1" as="geometry">
                        <mxPoint x="359.29000000000013" y="377" as="sourcePoint"/>
                        <mxPoint x="399.29000000000013" y="339" as="targetPoint"/>
                    </mxGeometry>
                </mxCell>
                <mxCell id="262" value="" style="endArrow=classic;html=1;strokeColor=#00CC00;strokeWidth=3;fontSize=16;" edge="1" parent="1">
                    <mxGeometry width="50" height="50" relative="1" as="geometry">
                        <mxPoint x="360.29000000000013" y="379.6400000000001" as="sourcePoint"/>
                        <mxPoint x="360" y="435" as="targetPoint"/>
                    </mxGeometry>
                </mxCell>
                <mxCell id="264" value="" style="shape=mxgraph.arrows2.wedgeArrow;html=1;bendable=0;startWidth=6;fillColor=strokeColor;defaultFillColor=invert;defaultGradientColor=invert;strokeColor=#000000;strokeWidth=4;fontFamily=Comic Sans MS;fontSize=60;fontColor=#000000;endArrow=none;endFill=0;endSize=4;curved=1;entryX=0.607;entryY=0.002;entryDx=0;entryDy=0;entryPerimeter=0;exitX=0.803;exitY=0.086;exitDx=0;exitDy=0;exitPerimeter=0;" edge="1" parent="1" source="263" target="263">
                    <mxGeometry width="100" height="100" relative="1" as="geometry">
                        <mxPoint x="50.24294103062107" y="88.87254741721046" as="sourcePoint"/>
                        <mxPoint x="20.88366998636303" y="105.99287430627552" as="targetPoint"/>
                    </mxGeometry>
                </mxCell>
                <mxCell id="265" value="" style="group;rotation=-235;" vertex="1" connectable="0" parent="1">
                    <mxGeometry x="310.16" y="133.97" width="202.99" height="234.2372641121303" as="geometry"/>
                </mxCell>
                <mxCell id="266" value="" style="verticalLabelPosition=bottom;verticalAlign=top;html=1;shape=mxgraph.basic.arc;startAngle=0.31319715650774343;endAngle=0.2752507692245065;fillStyle=hatch;strokeColor=#000000;strokeWidth=2;fontFamily=Comic Sans MS;fontSize=60;fontColor=#000000;fillColor=#FFFFFF;rotation=-445;" vertex="1" parent="265">
                    <mxGeometry x="158" y="99.03" width="81.02" height="41.58" as="geometry"/>
                </mxCell>
                <mxCell id="267" value="" style="shape=mxgraph.arrows2.wedgeArrow;html=1;bendable=0;startWidth=6;fillColor=strokeColor;defaultFillColor=invert;defaultGradientColor=invert;strokeColor=#000000;strokeWidth=4;fontFamily=Comic Sans MS;fontSize=60;fontColor=#000000;endArrow=none;endFill=0;endSize=4;curved=1;entryX=0.607;entryY=0.002;entryDx=0;entryDy=0;entryPerimeter=0;exitX=0.803;exitY=0.086;exitDx=0;exitDy=0;exitPerimeter=0;" edge="1" parent="265" source="266" target="266">
                    <mxGeometry width="100" height="100" relative="1" as="geometry">
                        <mxPoint x="176" y="74.03" as="sourcePoint"/>
                        <mxPoint x="190" y="104.03" as="targetPoint"/>
                    </mxGeometry>
                </mxCell>
                <mxCell id="268" value="&lt;font style=&quot;font-size: 24px;&quot;&gt;$$\theta_4$$&lt;/font&gt;" style="text;html=1;strokeColor=none;fillColor=none;align=center;verticalAlign=middle;whiteSpace=wrap;rounded=0;fillStyle=hatch;strokeWidth=4;fontFamily=Comic Sans MS;fontSize=60;fontColor=#000000;" vertex="1" parent="265">
                    <mxGeometry x="215.99522996818052" y="120.85460511069103" width="50.330178933013755" height="19.754223333536622" as="geometry"/>
                </mxCell>
                <mxCell id="269" value="" style="group;rotation=-150;" vertex="1" connectable="0" parent="265">
                    <mxGeometry x="88" y="29.029999999999987" width="202.99" height="184.61" as="geometry"/>
                </mxCell>
                <mxCell id="285" value="" style="endArrow=none;html=1;fontColor=#66FF66;strokeColor=#000000;exitX=0;exitY=0.5;exitDx=0;exitDy=0;exitPerimeter=0;strokeWidth=8;fontSize=16;" edge="1" parent="269">
                    <mxGeometry width="50" height="50" relative="1" as="geometry">
                        <mxPoint x="53.84106781186506" y="-11.99893218813449" as="sourcePoint"/>
                        <mxPoint x="180.78000000000003" y="9.929999999999978" as="targetPoint"/>
                    </mxGeometry>
                </mxCell>
                <mxCell id="286" value="" style="endArrow=none;html=1;fontColor=#66FF66;strokeColor=#000000;strokeWidth=8;fontSize=16;" edge="1" parent="269">
                    <mxGeometry width="50" height="50" relative="1" as="geometry">
                        <mxPoint x="106.77999999999997" y="73.92999999999998" as="sourcePoint"/>
                        <mxPoint x="179.78000000000003" y="6.929999999999978" as="targetPoint"/>
                    </mxGeometry>
                </mxCell>
                <mxCell id="270" value="" style="verticalLabelPosition=bottom;verticalAlign=top;html=1;shape=mxgraph.basic.arc;startAngle=0.31319715650774343;endAngle=0.2752507692245065;fillStyle=hatch;strokeColor=#000000;strokeWidth=2;fontFamily=Comic Sans MS;fontSize=60;fontColor=#000000;fillColor=#FFFFFF;rotation=-360;" vertex="1" parent="269">
                    <mxGeometry x="7" y="-36" width="81.02" height="41.58" as="geometry"/>
                </mxCell>
                <mxCell id="271" value="" style="shape=mxgraph.arrows2.wedgeArrow;html=1;bendable=0;startWidth=6;fillColor=strokeColor;defaultFillColor=invert;defaultGradientColor=invert;strokeColor=#000000;strokeWidth=4;fontFamily=Comic Sans MS;fontSize=60;fontColor=#000000;endArrow=none;endFill=0;endSize=4;curved=1;entryX=0.607;entryY=0.002;entryDx=0;entryDy=0;entryPerimeter=0;exitX=0.803;exitY=0.086;exitDx=0;exitDy=0;exitPerimeter=0;" edge="1" parent="269" source="270" target="270">
                    <mxGeometry width="100" height="100" relative="1" as="geometry">
                        <mxPoint x="91" y="-41" as="sourcePoint"/>
                        <mxPoint x="62" y="-25" as="targetPoint"/>
                    </mxGeometry>
                </mxCell>
                <mxCell id="276" value="&lt;font style=&quot;font-size: 24px;&quot;&gt;$$ \hat Z _{4}^m $$&lt;/font&gt;" style="text;html=1;strokeColor=none;fillColor=none;align=center;verticalAlign=middle;whiteSpace=wrap;rounded=0;strokeWidth=3;fontSize=60;fontFamily=Times New Roman;fontColor=#6666FF;rotation=0;" vertex="1" parent="269">
                    <mxGeometry x="-16" y="88" width="49.37" height="30.61" as="geometry"/>
                </mxCell>
                <mxCell id="279" value="&lt;font color=&quot;#ff6666&quot; style=&quot;font-size: 24px;&quot;&gt;$$ \hat X _{3}^m $$&lt;/font&gt;" style="text;html=1;strokeColor=none;fillColor=none;align=center;verticalAlign=middle;whiteSpace=wrap;rounded=0;strokeWidth=3;fontSize=60;fontFamily=Times New Roman;fontColor=#6666FF;rotation=0;connectable=0;" vertex="1" parent="269">
                    <mxGeometry x="-7.630000000000052" y="18" width="41" height="41.76" as="geometry"/>
                </mxCell>
                <mxCell id="358" value="&lt;font style=&quot;font-size: 24px;&quot;&gt;$$ \{O_5\} $$&lt;/font&gt;" style="text;html=1;strokeColor=none;fillColor=none;align=center;verticalAlign=middle;whiteSpace=wrap;rounded=0;strokeWidth=3;fontSize=24;fontFamily=Times New Roman;" vertex="1" parent="269">
                    <mxGeometry x="69.14213051496239" y="5.582098630903147" width="64.70057365441556" height="47.20263776561842" as="geometry"/>
                </mxCell>
                <mxCell id="261" value="&lt;font color=&quot;#ff6666&quot; style=&quot;font-size: 24px;&quot;&gt;$$ \hat X _{2}^m $$&lt;/font&gt;" style="text;html=1;strokeColor=none;fillColor=none;align=center;verticalAlign=middle;whiteSpace=wrap;rounded=0;strokeWidth=3;fontSize=60;fontFamily=Times New Roman;fontColor=#6666FF;rotation=0;connectable=0;" vertex="1" parent="265">
                    <mxGeometry x="123.84000000000009" y="223.79" width="41" height="41.76" as="geometry"/>
                </mxCell>
                <mxCell id="333" value="&lt;font style=&quot;font-size: 24px;&quot; color=&quot;#0000ff&quot;&gt;$$ \hat Z _{2}^m $$&lt;/font&gt;" style="text;html=1;strokeColor=none;fillColor=none;align=center;verticalAlign=middle;whiteSpace=wrap;rounded=0;strokeWidth=3;fontSize=24;fontFamily=Times New Roman;" vertex="1" parent="265">
                    <mxGeometry x="74.84079272218895" y="187.03462634651189" width="64.70057365441556" height="47.20263776561842" as="geometry"/>
                </mxCell>
                <mxCell id="359" value="" style="endArrow=classic;html=1;strokeColor=#00CC00;strokeWidth=3;fontSize=16;" edge="1" parent="265">
                    <mxGeometry width="50" height="50" relative="1" as="geometry">
                        <mxPoint x="50.83999999999986" y="95.60999999999976" as="sourcePoint"/>
                        <mxPoint x="1.839999999999975" y="93.03" as="targetPoint"/>
                    </mxGeometry>
                </mxCell>
                <mxCell id="360" value="" style="endArrow=classic;html=1;strokeColor=#00CC00;strokeWidth=3;fontSize=16;" edge="1" parent="265">
                    <mxGeometry width="50" height="50" relative="1" as="geometry">
                        <mxPoint x="49.83999999999986" y="96.61999999999978" as="sourcePoint"/>
                        <mxPoint x="17.839999999999975" y="132.03" as="targetPoint"/>
                    </mxGeometry>
                </mxCell>
                <mxCell id="357" value="&lt;font style=&quot;font-size: 24px;&quot;&gt;$$ \{O_3, O_4\} $$&lt;/font&gt;" style="text;html=1;strokeColor=none;fillColor=none;align=center;verticalAlign=middle;whiteSpace=wrap;rounded=0;strokeWidth=3;fontSize=24;fontFamily=Times New Roman;" vertex="1" parent="265">
                    <mxGeometry x="-68.15786948503762" y="96.2220986309031" width="64.70057365441556" height="47.20263776561842" as="geometry"/>
                </mxCell>
                <mxCell id="361" value="&lt;font style=&quot;font-size: 24px;&quot; color=&quot;#00cc00&quot;&gt;$$ \hat Y _{4}^m $$&lt;/font&gt;" style="text;html=1;strokeColor=none;fillColor=none;align=center;verticalAlign=middle;whiteSpace=wrap;rounded=0;strokeWidth=3;fontSize=24;fontFamily=Times New Roman;" vertex="1" parent="265">
                    <mxGeometry x="3.8405208689418373" y="138.02588626474264" width="39.14999125675108" height="30.464113735257282" as="geometry"/>
                </mxCell>
                <mxCell id="362" value="&lt;font style=&quot;font-size: 24px;&quot; color=&quot;#00cc00&quot;&gt;$$ \hat Y _{3}^m $$&lt;/font&gt;" style="text;html=1;strokeColor=none;fillColor=none;align=center;verticalAlign=middle;whiteSpace=wrap;rounded=0;strokeWidth=3;fontSize=24;fontFamily=Times New Roman;" vertex="1" parent="265">
                    <mxGeometry x="-29.159479131058163" y="65.75588626474266" width="39.14999125675108" height="30.464113735257282" as="geometry"/>
                </mxCell>
                <mxCell id="277" value="&lt;font style=&quot;font-size: 24px;&quot;&gt;$$\theta_5$$&lt;/font&gt;" style="text;html=1;strokeColor=none;fillColor=none;align=center;verticalAlign=middle;whiteSpace=wrap;rounded=0;fillStyle=hatch;strokeWidth=4;fontFamily=Comic Sans MS;fontSize=60;fontColor=#000000;rotation=0;" vertex="1" parent="1">
                    <mxGeometry x="368.64000000000004" y="114.61000000000001" width="50.330178933013755" height="19.754223333536622" as="geometry"/>
                </mxCell>
                <mxCell id="280" value="&lt;font style=&quot;font-size: 24px;&quot;&gt;$$ =\hat Z _{3}^m $$&lt;/font&gt;" style="text;html=1;strokeColor=none;fillColor=none;align=center;verticalAlign=middle;whiteSpace=wrap;rounded=0;strokeWidth=3;fontSize=60;fontFamily=Times New Roman;fontColor=#6666FF;rotation=0;" vertex="1" parent="1">
                    <mxGeometry x="315.16" y="158.76" width="49.37" height="30.61" as="geometry"/>
                </mxCell>
                <mxCell id="311" value="" style="group" vertex="1" connectable="0" parent="1">
                    <mxGeometry x="193.99999999999991" y="420" width="248.92000000000004" height="132.46411373525729" as="geometry"/>
                </mxCell>
                <mxCell id="312" value="" style="endArrow=blockThin;html=1;strokeWidth=3;fontSize=48;fontFamily=Times New Roman;endSize=12;endFill=1;strokeColor=#FF3333;jumpSize=2;startSize=2;" edge="1" parent="311">
                    <mxGeometry width="50" height="50" relative="1" as="geometry">
                        <mxPoint x="43.08917866106454" y="91.51090469688843" as="sourcePoint"/>
                        <mxPoint x="130.7" y="90.21343369526424" as="targetPoint"/>
                    </mxGeometry>
                </mxCell>
                <mxCell id="313" value="" style="endArrow=blockThin;html=1;strokeWidth=3;fontSize=48;fontFamily=Times New Roman;endFill=1;endSize=12;strokeColor=#00CC00;jumpSize=2;startSize=2;" edge="1" parent="311">
                    <mxGeometry width="50" height="50" relative="1" as="geometry">
                        <mxPoint x="42.79481782454762" y="92.05009255060979" as="sourcePoint"/>
                        <mxPoint x="95.14299956464953" y="49.4853919312255" as="targetPoint"/>
                    </mxGeometry>
                </mxCell>
                <mxCell id="314" value="" style="endArrow=blockThin;html=1;strokeWidth=3;fontSize=48;fontFamily=Times New Roman;endSize=12;endFill=1;strokeColor=#0000FF;jumpSize=2;startSize=2;" edge="1" parent="311">
                    <mxGeometry width="50" height="50" relative="1" as="geometry">
                        <mxPoint x="42.20609615151379" y="92.8588743311918" as="sourcePoint"/>
                        <mxPoint x="41.36652154984762" y="14.134294719147453" as="targetPoint"/>
                    </mxGeometry>
                </mxCell>
                <mxCell id="328" value="&lt;font style=&quot;font-size: 24px;&quot;&gt;$$ \hat Z _{1}^m $$&lt;/font&gt;" style="text;html=1;strokeColor=none;fillColor=none;align=center;verticalAlign=middle;whiteSpace=wrap;rounded=0;strokeWidth=3;fontSize=60;fontFamily=Times New Roman;fontColor=#6666FF;rotation=0;" vertex="1" parent="311">
                    <mxGeometry x="-13.999999999999915" y="16" width="49.37" height="30.61" as="geometry"/>
                </mxCell>
                <mxCell id="329" value="&lt;font style=&quot;font-size: 24px;&quot; color=&quot;#ff3333&quot;&gt;$$ \hat X _{1} ^m$$&lt;/font&gt;" style="text;html=1;strokeColor=none;fillColor=none;align=center;verticalAlign=middle;whiteSpace=wrap;rounded=0;strokeWidth=3;fontSize=24;fontFamily=Times New Roman;" vertex="1" parent="311">
                    <mxGeometry x="102.00491514290067" y="102" width="39.14999125675108" height="30.464113735257282" as="geometry"/>
                </mxCell>
                <mxCell id="318" value="&lt;font style=&quot;font-size: 24px;&quot; color=&quot;#00cc00&quot;&gt;$$ \hat Y _{1}^m $$&lt;/font&gt;" style="text;html=1;strokeColor=none;fillColor=none;align=center;verticalAlign=middle;whiteSpace=wrap;rounded=0;strokeWidth=3;fontSize=24;fontFamily=Times New Roman;" vertex="1" parent="311">
                    <mxGeometry x="98.77052086894182" y="50.995886264742694" width="39.14999125675108" height="30.464113735257282" as="geometry"/>
                </mxCell>
                <mxCell id="327" value="&lt;font style=&quot;font-size: 24px;&quot; color=&quot;#00cc00&quot;&gt;$$ \hat Y _{2}^m $$&lt;/font&gt;" style="text;html=1;strokeColor=none;fillColor=none;align=center;verticalAlign=middle;whiteSpace=wrap;rounded=0;strokeWidth=3;fontSize=24;fontFamily=Times New Roman;" vertex="1" parent="311">
                    <mxGeometry x="180.00052086894195" y="-6.004113735257363" width="39.14999125675108" height="30.464113735257282" as="geometry"/>
                </mxCell>
                <mxCell id="334" value="" style="endArrow=classic;html=1;fontColor=#66FF66;fillColor=#d5e8d4;strokeColor=#33FF99;strokeWidth=5;fontSize=16;endFill=0;shape=flexArrow;" edge="1" parent="311">
                    <mxGeometry width="50" height="50" relative="1" as="geometry">
                        <mxPoint x="141.15000000000006" y="76" as="sourcePoint"/>
                        <mxPoint x="191.15000000000006" y="21" as="targetPoint"/>
                    </mxGeometry>
                </mxCell>
                <mxCell id="353" value="" style="verticalLabelPosition=bottom;verticalAlign=top;html=1;shape=mxgraph.basic.arc;startAngle=0.31319715650774343;endAngle=0.2752507692245065;fillStyle=hatch;strokeColor=#000000;strokeWidth=2;fontFamily=Comic Sans MS;fontSize=60;fontColor=#000000;fillColor=#FFFFFF;rotation=-360;" vertex="1" parent="311">
                    <mxGeometry x="11.000000000000114" y="71" width="81.02" height="41.58" as="geometry"/>
                </mxCell>
                <mxCell id="354" value="" style="shape=mxgraph.arrows2.wedgeArrow;html=1;bendable=0;startWidth=6;fillColor=strokeColor;defaultFillColor=invert;defaultGradientColor=invert;strokeColor=#000000;strokeWidth=4;fontFamily=Comic Sans MS;fontSize=60;fontColor=#000000;endArrow=none;endFill=0;endSize=4;curved=1;entryX=0.607;entryY=0.002;entryDx=0;entryDy=0;entryPerimeter=0;exitX=0.803;exitY=0.086;exitDx=0;exitDy=0;exitPerimeter=0;" edge="1" parent="311" source="353" target="353">
                    <mxGeometry width="100" height="100" relative="1" as="geometry">
                        <mxPoint x="-259.40705896937885" y="-198.91745258278956" as="sourcePoint"/>
                        <mxPoint x="-288.7663300136369" y="-181.79712569372447" as="targetPoint"/>
                    </mxGeometry>
                </mxCell>
                <mxCell id="355" value="&lt;font color=&quot;#000000&quot;&gt;$$d_2$$&lt;/font&gt;" style="text;html=1;align=center;verticalAlign=middle;resizable=0;points=[];autosize=1;strokeColor=none;fillColor=none;fontSize=24;fontColor=#FF6666;" vertex="1" parent="311">
                    <mxGeometry x="137.92000000000004" y="42.99999999999994" width="111" height="41" as="geometry"/>
                </mxCell>
                <mxCell id="348" value="&lt;font style=&quot;font-size: 24px;&quot;&gt;$$\theta_1$$&lt;/font&gt;" style="text;html=1;strokeColor=none;fillColor=none;align=center;verticalAlign=middle;whiteSpace=wrap;rounded=0;fillStyle=hatch;strokeWidth=4;fontFamily=Comic Sans MS;fontSize=60;fontColor=#000000;" vertex="1" parent="1">
                    <mxGeometry x="159.82522996818048" y="504.00460511069105" width="50.330178933013755" height="19.754223333536622" as="geometry"/>
                </mxCell>
                <mxCell id="349" value="&lt;font style=&quot;font-size: 24px;&quot;&gt;$$ \{O_0\} $$&lt;/font&gt;" style="text;html=1;strokeColor=none;fillColor=none;align=center;verticalAlign=middle;whiteSpace=wrap;rounded=0;strokeWidth=3;fontSize=24;fontFamily=Times New Roman;" vertex="1" parent="1">
                    <mxGeometry x="210.15213051496238" y="536.0020986309031" width="64.70057365441556" height="47.20263776561842" as="geometry"/>
                </mxCell>
                <mxCell id="356" value="&lt;font style=&quot;font-size: 24px;&quot;&gt;$$ \{O_2\} $$&lt;/font&gt;" style="text;html=1;strokeColor=none;fillColor=none;align=center;verticalAlign=middle;whiteSpace=wrap;rounded=0;strokeWidth=3;fontSize=24;fontFamily=Times New Roman;" vertex="1" parent="1">
                    <mxGeometry x="287.1521305149624" y="371.83209863090315" width="64.70057365441556" height="47.20263776561842" as="geometry"/>
                </mxCell>
            </root>
        </mxGraphModel>
    </diagram>
</mxfile>